<svg width="47" height="34" viewBox="0 0 47 34" fill="none" xmlns="http://www.w3.org/2000/svg">
<path d="M14.674 20.5067L10.3403 9.13767L3.14063 11.8821L2.64091 10.5711L18.3512 4.58255L18.851 5.89354L11.6298 8.64613L15.9635 20.0152L14.674 20.5067ZM17.6043 20.7681L13.2706 9.39909L20.4918 6.64649L19.0745 2.92845L1.0001 9.81813L2.41736 13.5362L9.61704 10.7918L13.9507 22.1608L17.6043 20.7681ZM2.08488 14.2783L0.258009 9.48565L19.407 2.18636L22.3355 3.60534L24.1132 8.26901L16.892 11.0216L21.2257 22.3906L16.6265 24.1438L13.6183 22.9029L10.0792 13.6185L5.09316 15.5191L2.08488 14.2783Z" fill="black"/>
<path d="M38.5609 13.3766C37.9324 13.1087 37.2951 12.9673 36.6489 12.9526C36.0027 12.9379 35.3598 12.9958 34.7201 13.1264C34.0859 13.2713 33.4511 13.4575 32.8158 13.6849C32.1859 13.9267 31.5775 14.1602 30.9906 14.3855C30.7759 14.468 30.4923 14.585 30.14 14.7367C29.7733 14.8939 29.3906 15.0736 28.992 15.2759C28.5845 15.498 28.1825 15.7345 27.786 15.9852C27.3951 16.2503 27.058 16.5275 26.7749 16.8168C26.4775 17.1116 26.2626 17.4076 26.1303 17.7048C25.9892 18.0217 25.9791 18.3377 26.1 18.6526C26.2209 18.9675 26.4469 19.1928 26.7782 19.3284C27.1007 19.4839 27.481 19.576 27.9191 19.6049C28.3572 19.6339 28.8344 19.6149 29.3508 19.5481C29.8583 19.5011 30.3521 19.4183 30.8322 19.2997C31.3177 19.1954 31.7664 19.0807 32.1782 18.9555C32.5757 18.8357 32.8961 18.7292 33.1395 18.6357L33.118 18.644C33.4671 18.5264 33.9031 18.4001 34.4261 18.265C34.9491 18.13 35.5046 18.0153 36.0925 17.921C36.6804 17.8267 37.2793 17.7611 37.8892 17.724C38.5046 17.7013 39.0765 17.7364 39.6049 17.8292C40.1332 17.922 40.5993 18.088 41.0032 18.3271C41.4126 18.5806 41.7052 18.9364 41.881 19.3945C42.0733 19.8955 42.1093 20.3744 41.989 20.8312C41.8544 21.2934 41.6263 21.7259 41.3045 22.1286C40.974 22.5512 40.5714 22.9357 40.0967 23.2821C39.6275 23.6429 39.1374 23.9706 38.6264 24.2653C38.1154 24.56 37.622 24.8151 37.1463 25.0306C36.6563 25.2515 36.2395 25.4279 35.8959 25.5598C35.3377 25.7741 34.7612 25.9625 34.1666 26.1251C33.5633 26.3074 32.9577 26.4413 32.3499 26.5268C31.7422 26.6123 31.1296 26.6422 30.512 26.6164C29.8999 26.605 29.3061 26.5127 28.7304 26.3395L29.5552 25.0867C30.0803 25.2136 30.602 25.2679 31.1206 25.2495C31.6446 25.2455 32.1664 25.193 32.6861 25.092C33.2058 24.9911 33.7189 24.8516 34.2254 24.6736C34.7374 24.5099 35.2296 24.3374 35.702 24.1561C36.0312 24.0297 36.4739 23.8351 37.03 23.5724C37.5718 23.3151 38.0944 23.0078 38.5977 22.6503C39.0922 22.3127 39.4849 21.9238 39.7759 21.4836C40.0723 21.0578 40.1298 20.6087 39.9485 20.1363C39.7726 19.6782 39.4365 19.3802 38.9401 19.2423C38.4492 19.1187 37.8559 19.0918 37.1601 19.1618C36.4698 19.2462 35.7046 19.3921 34.8645 19.5996C34.0155 19.8269 33.1496 20.0526 32.2665 20.2766C31.3835 20.5006 30.5137 20.6949 29.6571 20.8594C28.7917 21.0438 27.9946 21.128 27.2658 21.1122C26.5426 21.1106 25.908 20.9764 25.3621 20.7096C24.8218 20.4572 24.4307 20.016 24.1889 19.3862C24.0186 18.9424 24.0035 18.4966 24.1436 18.0486C24.2694 17.6061 24.4975 17.1736 24.8281 16.7511C25.1641 16.3429 25.5711 15.9485 26.0491 15.5679C26.5184 15.2072 27.0057 14.8723 27.5112 14.5632C28.0024 14.2597 28.4831 13.9931 28.9533 13.7633C29.4235 13.5335 29.8161 13.3582 30.131 13.2373L31.7415 12.6191C32.3284 12.3938 32.9522 12.179 33.6128 11.9747C34.2735 11.7704 34.939 11.6216 35.6095 11.5285C36.2855 11.4497 36.9549 11.4391 37.6175 11.4968C38.2802 11.5545 38.917 11.7371 39.5277 12.0446L38.5609 13.3766ZM41.483 11.8114C40.5533 11.1007 39.5958 10.6389 38.6107 10.4257C37.631 10.2269 36.6364 10.1817 35.6269 10.29C34.6228 10.4127 33.6258 10.6393 32.6359 10.9701C31.6317 11.3063 30.6429 11.6612 29.6695 12.0349C29.24 12.1997 28.7428 12.4234 28.1779 12.706C27.6185 13.0028 27.0513 13.3437 26.4764 13.7287C25.9015 14.1136 25.3574 14.536 24.8441 14.9958C24.3219 15.4754 23.8879 15.9705 23.5419 16.4811C23.187 17.0115 22.9516 17.5535 22.8357 18.1072C22.7109 18.6807 22.7612 19.2609 22.9865 19.8478C23.2557 20.5492 23.6412 21.0828 24.143 21.4486C24.6359 21.8343 25.1961 22.0955 25.8235 22.2325C26.4421 22.3892 27.1119 22.4441 27.833 22.3972C28.5453 22.3702 29.2598 22.2848 29.9766 22.141C30.6934 21.9973 31.3848 21.8304 32.051 21.6404C32.7171 21.4504 33.3089 21.2807 33.8264 21.1313C34.0037 21.0797 34.344 20.9819 34.8471 20.8381C35.3558 20.7085 35.8843 20.5877 36.4326 20.4758C36.9864 20.3782 37.4912 20.324 37.947 20.3133C38.4028 20.3026 38.6691 20.3975 38.746 20.5979C38.8339 20.8269 38.7138 21.0701 38.3856 21.3275C38.0573 21.5849 37.668 21.8329 37.2176 22.0715C36.7529 22.3156 36.2986 22.5228 35.8549 22.6931C35.4023 22.8833 35.0973 23.0086 34.9398 23.069C34.4817 23.2449 34.0083 23.402 33.5194 23.5404C33.036 23.6931 32.5504 23.7973 32.0627 23.8532C31.5607 23.9145 31.068 23.9147 30.5848 23.8538C30.0872 23.7985 29.6008 23.665 29.1253 23.4533L26.7981 26.761C27.6278 27.2965 28.4659 27.64 29.3124 27.7914C30.1643 27.9571 31.018 27.9989 31.8735 27.9169C32.7289 27.8349 33.5899 27.6604 34.4564 27.3935C35.3087 27.132 36.1571 26.8392 37.0017 26.515C37.4454 26.3447 37.9399 26.1138 38.485 25.8224C39.0213 25.5509 39.5554 25.2309 40.0874 24.8624C40.605 24.4995 41.099 24.0963 41.5694 23.653C42.0255 23.2151 42.4023 22.742 42.6998 22.2336C42.9974 21.7252 43.1871 21.1925 43.2689 20.6355C43.3563 20.0928 43.2873 19.528 43.062 18.9411C42.8037 18.2683 42.4165 17.7518 41.9005 17.3914C41.3844 17.0311 40.7884 16.7836 40.1126 16.6488C39.4367 16.5141 38.7141 16.4712 37.9445 16.5203C37.175 16.5693 36.412 16.6569 35.6556 16.783C34.8904 16.9289 34.1621 17.0853 33.4707 17.2522C32.7704 17.4389 32.1587 17.5997 31.6357 17.7348C31.4871 17.7754 31.197 17.854 30.7653 17.9704C30.3194 18.0923 29.8509 18.1982 29.3599 18.2881C28.8743 18.3924 28.4279 18.4488 28.0206 18.4574C27.6132 18.4659 27.3739 18.3771 27.3024 18.191C27.242 18.0336 27.3043 17.8536 27.4894 17.6512C27.6799 17.463 27.9404 17.2645 28.2708 17.0556C28.6067 16.8609 28.9839 16.6669 29.4023 16.4734C29.8208 16.2799 30.2349 16.0963 30.6445 15.9227C31.0398 15.7545 31.4021 15.6072 31.7313 15.4808C32.0463 15.3599 32.2681 15.2748 32.397 15.2253C32.9409 15.0165 33.486 14.8319 34.0321 14.6715C34.5838 14.5255 35.1376 14.4279 35.6935 14.3787C36.255 14.3438 36.8098 14.3772 37.358 14.4789C37.9062 14.5805 38.4471 14.7917 38.9808 15.1124L41.483 11.8114ZM39.3586 15.5833L40.7932 16.2398C41.4371 16.4196 41.9983 16.7051 42.477 17.0962C42.9611 17.5017 43.335 18.048 43.5988 18.7351C43.8516 19.3936 43.9381 20.0255 43.8584 20.6309C43.77 21.2562 43.5681 21.8428 43.2529 22.3908C42.9377 22.9389 42.5361 23.4543 42.0481 23.9373C41.5656 24.4346 41.0468 24.8801 40.4917 25.2738C39.9366 25.6676 39.3722 26.0157 38.7984 26.318C38.2247 26.6204 37.6944 26.865 37.2077 27.0518C36.3632 27.376 35.5004 27.6743 34.6196 27.9468C33.7442 28.2335 32.8573 28.4261 31.9589 28.5246C31.0462 28.6286 30.1254 28.6043 29.1964 28.4518C28.2673 28.2993 27.3197 27.9486 26.3535 27.3997C25.7394 27.1263 25.2458 26.8888 24.8727 26.687C24.5052 26.4997 24.2113 26.3332 23.9913 26.1878C23.7569 26.0478 23.5792 25.9272 23.4581 25.8258C23.3426 25.7387 23.2298 25.6589 23.1198 25.5861L25.1594 22.6845C25.0603 22.6404 24.9569 22.6062 24.849 22.5819C24.7323 22.5774 24.5606 22.5366 24.3339 22.4594C24.1072 22.3821 23.8056 22.2598 23.4292 22.0922C23.044 21.9444 22.5218 21.7178 21.8626 21.4125C21.3816 21.1865 20.9338 20.8328 20.5191 20.3514C20.1044 19.8701 19.7789 19.3216 19.5426 18.7061C19.2953 18.0619 19.233 17.4289 19.3556 16.807C19.4782 16.1851 19.7186 15.5919 20.0767 15.0274C20.4349 14.4628 20.8866 13.9281 21.4318 13.4232C21.9771 12.9182 22.5488 12.4606 23.1468 12.0504C23.7448 11.6402 24.3451 11.2784 24.9474 10.965C25.5355 10.6572 26.0586 10.4153 26.5166 10.2395C27.3612 9.91528 28.2201 9.58558 29.0933 9.25039C29.9665 8.91519 30.8529 8.65707 31.7524 8.47601C32.6377 8.30046 33.5371 8.22619 34.4508 8.2532C35.3645 8.28022 36.2797 8.50375 37.1965 8.92378C37.9526 9.22481 38.5981 9.4944 39.1329 9.73254C39.659 9.99048 40.1185 10.2247 40.5113 10.4352C40.8954 10.6656 41.2327 10.881 41.5231 11.0816C41.7993 11.2876 42.0656 11.4892 42.322 11.6865L39.3586 15.5833Z" fill="black"/>
</svg>
